<svg version="1.2" xmlns="http://www.w3.org/2000/svg" viewBox="0 0 100 100" width="100" height="100">
	<title>Logo</title>
	<style>
		.s0 { fill: #000000 } 
		.s1 { fill: none;stroke: #000000;stroke-miterlimit:100;stroke-width: 2.6 } 
	</style>
	<path id="EA" class="s0" aria-label="EA"  d="m15.2 34.4h2.3c1.8 0 2.1 0.4 2.1 2.1v33.1h-2.5v1.4h27.1v-9.6h-1.5l-3 8.2h-13.6c-1.8 0-2.1-0.4-2.1-2.2v-15.3h12v-0.3l-0.2-1.5c-2.2 0.2-3.9 0.4-7.7 0.4h-4.1v-16.3h13.8l3 8.2h1.4v-9.6h-27zm33.1 36.6h8.8v-1.4h-1.7c-1.4 0-2.2-0.3-2.2-1.3 0-0.2 0-0.6 0.1-0.9l2.2-5.9h16.8l3 8.1h-2.6v1.4h11.3v-1.4h-2.3c-1.8 0-2-0.4-2.6-2.1l-13-35-4 1.6 0.9 2.4-11.7 32-3 1.1zm7.7-10.9l7.8-21.4 8 21.4z"/>
	<path id="Shape 1" class="s1" d="m48.3 94.5c-22.9 0-41.3-18.4-41.3-41.3 0-22.8 18.4-41.2 41.3-41.2 22.8 0 41.2 18.4 41.2 41.3 0 22.8-18.4 41.2-41.3 41.2z"/>
	<path id="Shape 2" class="s0" d="m48.5 11.8c-8.6 0-15.5-1.8-15.5-3.9 0-2.2 6.9-3.9 15.5-3.9 8.6 0 15.6 1.7 15.6 3.9 0 2.1-7 3.9-15.6 3.9z"/>
</svg>